<svg width="434" height="310" viewBox="0 0 434 310" fill="none" xmlns="http://www.w3.org/2000/svg">
<g clip-path="url(#clip0_91_5748)">
<path d="M308.056 227.368H74.341C72.2585 227.365 70.2621 226.565 68.7896 225.142C67.3171 223.719 66.4887 221.79 66.4863 219.778V35.8962C66.4887 33.884 67.3171 31.955 68.7896 30.5321C70.2621 29.1093 72.2585 28.309 74.341 28.3066H308.056C310.138 28.309 312.135 29.1093 313.607 30.5321C315.08 31.955 315.908 33.884 315.911 35.8962V219.778C315.908 221.79 315.08 223.719 313.607 225.142C312.135 226.565 310.138 227.365 308.056 227.368Z" fill="#E6E6E6"/>
<path d="M79.6402 33.709C77.6343 33.7112 75.7111 34.4822 74.2927 35.8528C72.8743 37.2234 72.0765 39.0817 72.0742 41.0199V214.659C72.0766 216.597 72.8745 218.456 74.2929 219.826C75.7113 221.197 77.6343 221.967 79.6402 221.97H239.609C258.357 221.949 276.331 214.744 289.588 201.934C302.845 189.125 310.303 171.757 310.324 153.641V41.0199C310.322 39.0816 309.524 37.2234 308.105 35.8528C306.687 34.4822 304.764 33.7112 302.758 33.709L79.6402 33.709Z" fill="white"/>
<path d="M265.438 111.801H223.06C222.176 111.8 221.329 111.461 220.704 110.857C220.079 110.253 219.728 109.434 219.727 108.58V88.1997C219.728 87.3457 220.079 86.5269 220.704 85.923C221.329 85.3191 222.176 84.9795 223.06 84.9785H265.438C266.322 84.9795 267.17 85.3191 267.794 85.923C268.419 86.5269 268.771 87.3457 268.772 88.1997C271.394 95.4119 271.767 102.265 268.772 108.58C268.771 109.434 268.419 110.253 267.794 110.857C267.17 111.461 266.322 111.8 265.438 111.801Z" fill="#E6E6E6"/>
<path d="M260.419 109.832H224.414C223.663 109.831 222.944 109.542 222.413 109.029C221.882 108.516 221.583 107.821 221.582 107.095V89.7797C221.583 89.0541 221.882 88.3585 222.413 87.8454C222.944 87.3324 223.663 87.0438 224.414 87.043H260.419C261.17 87.0438 261.89 87.3324 262.421 87.8454C262.952 88.3585 263.25 89.0541 263.251 89.7797C265.681 95.9464 266.072 101.782 263.251 107.095C263.25 107.821 262.952 108.516 262.421 109.029C261.89 109.542 261.17 109.831 260.419 109.832Z" fill="white"/>
<path d="M258.475 122.478H229.928C229.088 122.479 228.282 122.158 227.687 121.585C227.092 121.013 226.757 120.235 226.756 119.423C226.754 118.612 227.086 117.833 227.679 117.258C228.271 116.683 229.076 116.359 229.916 116.357H258.475C259.314 116.359 260.118 116.682 260.711 117.256C261.304 117.83 261.637 118.607 261.637 119.418C261.637 120.228 261.304 121.006 260.711 121.58C260.118 122.154 259.314 122.477 258.475 122.478Z" fill="#E6E6E6"/>
<path d="M239.281 91.7188C238.953 91.7199 238.638 91.8465 238.406 92.0711C238.174 92.2956 238.044 92.5998 238.043 92.9171V105.889C238.043 106.099 238.1 106.305 238.208 106.486C238.316 106.668 238.472 106.819 238.659 106.924C238.847 107.029 239.059 107.085 239.276 107.086C239.493 107.087 239.706 107.032 239.894 106.929L251.744 100.4C251.935 100.295 252.093 100.144 252.203 99.9604C252.313 99.7772 252.37 99.5691 252.37 99.3574C252.369 99.1457 252.31 98.9379 252.199 98.7553C252.088 98.5727 251.929 98.4218 251.738 98.3181L239.889 91.874C239.704 91.7725 239.494 91.7191 239.281 91.7188Z" fill="#E6E6E6"/>
<path d="M412.162 285.181C411.509 284.378 410.621 283.782 409.614 283.471C408.607 283.16 407.527 283.148 406.512 283.436L406.291 283.499L404.301 291.005C404.003 289.886 403.365 287.361 402.963 284.889L402.928 284.685L402.731 284.769C400.651 285.657 398.695 286.796 396.911 288.158C393.749 290.608 391.178 293.695 389.376 297.202C387.573 300.709 386.583 304.554 386.474 308.468L386.47 308.612L386.467 308.703L386.73 308.612L392.384 306.66C394.887 306.873 397.408 306.543 399.762 305.695C402.116 304.847 404.245 303.501 405.992 301.756C408.277 299.429 409.844 296.434 411.358 293.537C411.802 292.693 412.256 291.822 412.721 290.985C413.239 290.075 413.462 289.035 413.363 288C413.264 286.965 412.845 285.983 412.162 285.181Z" fill="#F2F2F2"/>
<path d="M267.787 93.7728C267.9 94.3409 268.141 94.8782 268.493 95.3466C268.844 95.8151 269.298 96.2034 269.822 96.4841C270.345 96.7649 270.926 96.9313 271.524 96.9716C272.121 97.0119 272.721 96.9251 273.28 96.7174L290.176 115.71L292.315 108.699L275.564 91.3226C275.141 90.4383 274.396 89.7348 273.472 89.3454C272.548 88.956 271.508 88.9077 270.549 89.2097C269.59 89.5117 268.78 90.1431 268.271 90.9841C267.761 91.8251 267.589 92.8173 267.787 93.7727L267.787 93.7728Z" fill="#FFB8B8"/>
<path d="M335.885 304.073H330.293L327.633 283.232H335.886L335.885 304.073Z" fill="#FFB6B6"/>
<path d="M335.735 302.307L329.764 299.96L329.593 299.893L326.297 302.307C324.436 302.307 322.651 303.022 321.335 304.293C320.019 305.565 319.28 307.289 319.279 309.088V309.308H337.308V302.307H335.735Z" fill="#2F2E41"/>
<path d="M375.773 304.073H370.182L367.521 283.232H375.774L375.773 304.073Z" fill="#FFB6B6"/>
<path d="M375.625 302.307L369.655 299.96L369.484 299.893L366.188 302.307C364.327 302.307 362.542 303.022 361.226 304.293C359.91 305.565 359.17 307.289 359.17 309.088V309.308H377.199V302.307H375.625Z" fill="#2F2E41"/>
<path d="M362.576 179.625C362.576 179.625 369.589 186.675 369.589 192.468C369.589 198.261 367.836 206.215 369.589 207.956C371.343 209.697 373.534 211.815 370.904 214.356C368.274 216.897 366.959 218.168 368.713 219.862C370.466 221.556 369.589 251.205 369.589 251.205L378.794 291.018H367.197L352.494 251.205L348.549 218.168L335.79 249.934L337.199 291.36L325.075 291.018L320.057 246.969C320.057 246.969 327.508 205.068 326.193 203.994C324.878 202.92 326.193 200.752 326.193 200.752L329.7 184.708L362.576 179.625Z" fill="#2F2E41"/>
<path d="M348.845 129.637C348.845 129.637 351.23 120.557 340.244 117.954C329.257 115.35 297.851 112.006 297.851 112.006L281.98 95.7324L276.602 103.279L294.394 124.643L336.552 133.01L348.845 129.637Z" fill="#3F3D56"/>
<path d="M279.215 102.723C279.708 102.106 280.094 101.415 280.357 100.679L282.633 95.2745L282.043 95.2507C281.225 95.1021 280.384 95.1221 279.575 95.3094C278.766 95.4967 278.007 95.8471 277.348 96.3376C276.689 96.8281 276.144 97.4477 275.75 98.1557C275.356 98.8637 275.122 99.6441 275.062 100.446C274.987 101.139 275.116 101.839 275.434 102.465C275.595 102.776 275.831 103.045 276.121 103.25C276.411 103.456 276.747 103.592 277.102 103.648C277.505 103.668 277.908 103.595 278.276 103.434C278.643 103.273 278.966 103.029 279.215 102.723Z" fill="#E6E6E6"/>
<path d="M327.463 186.872L326.148 196.083C326.148 196.083 328.778 198.812 330.094 198.471C331.409 198.13 336.23 196.144 336.23 196.144C336.23 196.144 341.929 199.153 344.997 199.494C348.066 199.835 364.284 197.788 364.723 196.765C365.161 195.742 370.256 191.735 370.256 191.735L368.229 180.049L327.463 186.872Z" fill="#E6E6E6"/>
<path d="M370.17 154.649C370.17 154.649 369.057 163.531 369.934 164.348C370.81 165.161 369.057 170.308 367.304 173.696C365.55 177.084 368.619 177.508 368.619 180.049C368.619 182.59 369.934 191.908 369.934 191.908C369.934 191.908 356.345 192.755 354.153 190.638C351.962 188.52 348.455 190.214 343.633 194.873C338.812 199.532 328.34 195.72 326.148 193.603C323.956 191.485 327.853 183.861 329.168 182.383C330.483 180.905 327.901 182.616 326.586 177.931C325.271 173.247 327.853 173.696 330.045 171.578C332.236 169.46 330.045 165.648 328.291 161.837C326.538 158.025 327.853 129.647 327.853 122.87C327.853 116.093 337.496 115.246 337.496 115.246L341.314 110.608L344.12 107.199L349.617 106.987L349.761 106.983L355.078 106.775L357.66 109.681L363.359 116.093L369.934 117.364C375.194 119.058 373.879 129.647 373.879 129.647L370.17 154.649Z" fill="#3F3D56"/>
<path d="M349.346 105.15C355.569 105.15 360.613 100.275 360.613 94.2624C360.613 88.2495 355.569 83.375 349.346 83.375C343.123 83.375 338.078 88.2495 338.078 94.2624C338.078 100.275 343.123 105.15 349.346 105.15Z" fill="#FFB6B6"/>
<path d="M362.409 90.5985C359.31 88.762 359.707 83.9601 356.721 82.2833C355.237 81.4567 353.568 80.9887 351.857 80.9192C350.145 80.8497 348.441 81.1809 346.891 81.8844C344.788 81.015 342.268 81.7088 340.585 83.2788C338.903 84.8488 337.992 87.165 337.723 89.4942C337.529 91.8345 337.703 94.1897 338.239 96.4797C338.406 95.5596 338.573 94.6396 338.74 93.7195L347.623 91.8436C346.837 92.5263 346.05 93.2089 345.264 93.8916C349.287 94.7766 353.508 94.1387 357.059 92.1092C360.926 93.7843 360.226 97.5461 356.831 102.539C358.146 104.656 365.941 92.6911 362.409 90.5985Z" fill="#2F2E41"/>
<path d="M357.66 109.68C357.635 109.699 357.609 109.718 357.581 109.735C356.653 110.27 355.59 110.548 354.509 110.539C353.094 110.653 351.688 110.228 350.594 109.353C350.02 108.828 347.736 109.938 346.237 110.552C344.665 111.182 342.902 111.201 341.314 110.607L344.12 107.198L348.743 106.207H349.898L355.078 106.774L357.66 109.68Z" fill="#E6E6E6"/>
<path d="M433.317 309.828L276.472 309.999C276.382 310 276.292 309.983 276.209 309.95C276.125 309.917 276.049 309.869 275.985 309.807C275.921 309.746 275.87 309.673 275.835 309.593C275.8 309.512 275.782 309.426 275.781 309.339C275.781 309.252 275.798 309.165 275.832 309.084C275.866 309.004 275.917 308.93 275.98 308.868C276.043 308.806 276.119 308.757 276.202 308.723C276.285 308.689 276.375 308.672 276.465 308.671H276.472L433.317 308.5C433.498 308.501 433.672 308.571 433.801 308.696C433.929 308.82 434.001 308.988 434.001 309.164C434.001 309.34 433.929 309.508 433.801 309.632C433.672 309.757 433.498 309.827 433.317 309.828Z" fill="#CACACA"/>
<path d="M245.516 86.8278H244.361V7.05469H289.759V8.17006H245.516V86.8278Z" fill="#3F3D56"/>
<path d="M325.068 0H294.478C292.488 0 290.579 0.763832 289.172 2.12346C287.765 3.48308 286.975 5.32712 286.975 7.24992C286.975 9.17272 287.765 11.0168 289.172 12.3764C290.579 13.736 292.488 14.4998 294.478 14.4998H325.068C327.057 14.4998 328.966 13.736 330.373 12.3764C331.78 11.0168 332.571 9.17272 332.571 7.24992C332.571 5.32712 331.78 3.48308 330.373 2.12346C328.966 0.763832 327.057 0 325.068 0Z" fill="#F49F0A"/>
<path d="M244.27 94.1269C248.078 94.1269 251.165 91.1441 251.165 87.4648C251.165 83.7854 248.078 80.8027 244.27 80.8027C240.462 80.8027 237.375 83.7854 237.375 87.4648C237.375 91.1441 240.462 94.1269 244.27 94.1269Z" fill="#F49F0A"/>
<path d="M161.186 112.497L191.433 105.734L200.115 103.793C201.201 103.55 200.75 101.934 199.663 102.177L169.416 108.94L160.734 110.882C159.648 111.124 160.1 112.74 161.186 112.497H161.186Z" fill="#F2F2F2"/>
<path d="M192.421 94.8847L208.613 102.082C209.166 102.266 209.683 102.537 210.145 102.883C210.592 103.306 210.267 103.713 209.902 104.082C208.812 105.065 207.661 105.983 206.456 106.83L199.557 112.25C198.691 112.93 199.913 114.117 200.771 113.443L206.779 108.723L209.783 106.363C210.635 105.694 211.671 105.012 212.013 103.947C212.731 101.709 209.895 100.82 208.319 100.119L201.268 96.9848L193.302 93.4443C192.298 92.998 191.409 94.435 192.421 94.8847Z" fill="#F2F2F2"/>
<path d="M415.871 149.674C412.986 147.784 409.481 147.082 406.056 146.844C402.163 146.639 398.26 146.643 394.367 146.857C390.323 147.012 386.288 147.294 382.26 147.705C378.239 148.116 374.234 148.655 370.246 149.322C366.675 149.859 363.142 150.606 359.666 151.559C356.375 152.439 353.276 153.886 350.516 155.829C348.094 157.589 346.232 159.97 345.14 162.702C344.069 165.264 343.886 168.093 344.621 170.764C345.012 172.061 345.683 173.264 346.588 174.294C347.634 175.424 348.873 176.373 350.252 177.097C353.113 178.676 356.356 179.625 358.944 181.647C359.626 182.176 360.248 182.773 360.8 183.43C361.174 183.938 361.691 184.331 362.29 184.563C362.858 184.754 363.471 184.779 364.054 184.635C364.636 184.49 365.161 184.182 365.562 183.749C366.08 183.064 366.513 182.321 366.849 181.537L368.215 178.992C368.306 178.769 368.421 178.556 368.556 178.355C368.658 178.237 368.476 178.358 368.51 178.327C368.53 178.31 368.569 178.31 368.591 178.297C368.704 178.242 368.822 178.199 368.944 178.166C370.207 177.701 371.475 177.25 372.75 176.814C377.453 175.194 382.213 173.701 387.049 172.492C389.537 171.847 392.06 171.337 394.607 170.964C397.906 170.51 401.255 170.563 404.569 170.252C408.137 169.918 411.818 169.22 414.878 167.322C417.408 165.837 419.357 163.583 420.42 160.913C420.881 159.64 421.039 158.284 420.882 156.944C420.485 153.914 418.435 151.354 415.871 149.674Z" fill="#E6E6E6"/>
<path d="M409.969 151.377C407.362 149.669 404.195 149.035 401.099 148.819C397.581 148.634 394.055 148.638 390.537 148.831C386.882 148.971 383.235 149.227 379.596 149.598C375.961 149.97 372.342 150.457 368.739 151.059C365.512 151.544 362.319 152.22 359.178 153.081C356.204 153.876 353.403 155.183 350.91 156.939C348.721 158.529 347.038 160.681 346.051 163.15C345.083 165.465 344.918 168.022 345.582 170.435C345.936 171.608 346.541 172.695 347.359 173.626C348.305 174.647 349.425 175.504 350.671 176.159C353.257 177.586 356.186 178.443 358.525 180.27C359.142 180.748 359.704 181.288 360.202 181.881C360.541 182.34 361.008 182.696 361.549 182.905C362.062 183.078 362.617 183.101 363.143 182.97C363.669 182.839 364.143 182.561 364.506 182.17C364.974 181.55 365.365 180.879 365.669 180.171L366.903 177.871C366.986 177.669 367.089 177.477 367.212 177.296C367.304 177.189 367.139 177.298 367.171 177.27C367.188 177.254 367.224 177.255 367.243 177.243C367.345 177.193 367.452 177.154 367.562 177.124C368.703 176.704 369.85 176.297 371.001 175.903C375.252 174.439 379.553 173.09 383.923 171.997C386.171 171.414 388.452 170.953 390.753 170.616C393.735 170.206 396.761 170.254 399.756 169.973C402.98 169.671 406.307 169.041 409.072 167.325C411.358 165.983 413.119 163.946 414.08 161.533C414.496 160.383 414.639 159.158 414.498 157.947C414.138 155.208 412.286 152.895 409.969 151.377Z" fill="white"/>
<path d="M404.508 154.461L362.028 162.032C361.907 162.054 361.782 162.053 361.661 162.029C361.54 162.005 361.425 161.957 361.322 161.89C361.22 161.823 361.133 161.737 361.065 161.637C360.998 161.537 360.951 161.425 360.928 161.307C360.905 161.19 360.907 161.069 360.932 160.952C360.958 160.835 361.007 160.724 361.077 160.626C361.147 160.527 361.237 160.443 361.34 160.378C361.444 160.313 361.56 160.268 361.682 160.247L361.687 160.246L404.167 152.675C404.289 152.654 404.413 152.655 404.534 152.68C404.655 152.705 404.769 152.753 404.871 152.82C404.972 152.888 405.059 152.974 405.126 153.074C405.193 153.174 405.24 153.286 405.262 153.404C405.284 153.521 405.283 153.641 405.257 153.758C405.231 153.875 405.182 153.985 405.112 154.083C405.042 154.182 404.952 154.265 404.849 154.33C404.745 154.395 404.629 154.44 404.508 154.461V154.461Z" fill="#E6E6E6"/>
<path d="M405.555 159.942L363.075 167.512C362.953 167.535 362.828 167.534 362.707 167.509C362.586 167.485 362.471 167.438 362.369 167.37C362.267 167.303 362.18 167.217 362.112 167.117C362.044 167.017 361.998 166.905 361.975 166.788C361.952 166.67 361.954 166.55 361.979 166.433C362.005 166.316 362.054 166.205 362.124 166.106C362.194 166.008 362.283 165.924 362.387 165.859C362.491 165.793 362.607 165.749 362.728 165.727L362.734 165.726L405.214 158.156C405.335 158.134 405.46 158.136 405.581 158.161C405.701 158.186 405.816 158.233 405.917 158.301C406.019 158.368 406.106 158.455 406.173 158.555C406.24 158.655 406.286 158.767 406.309 158.884C406.331 159.001 406.329 159.122 406.303 159.238C406.278 159.355 406.228 159.466 406.158 159.564C406.088 159.662 405.999 159.746 405.896 159.811C405.792 159.876 405.676 159.92 405.555 159.942Z" fill="#E6E6E6"/>
<path d="M369.071 172.111L364.121 172.994C363.876 173.036 363.624 172.984 363.419 172.847C363.215 172.71 363.074 172.501 363.029 172.265C362.984 172.028 363.038 171.784 363.178 171.586C363.319 171.388 363.535 171.252 363.78 171.207L368.73 170.325C368.975 170.282 369.227 170.335 369.432 170.471C369.637 170.608 369.777 170.818 369.822 171.054C369.868 171.29 369.814 171.535 369.673 171.733C369.532 171.931 369.316 172.067 369.071 172.111Z" fill="#E6E6E6"/>
<path d="M365.485 194.901C367.655 194.515 369.089 192.502 368.689 190.405C368.289 188.309 366.206 186.923 364.036 187.31C361.866 187.696 360.432 189.709 360.832 191.806C361.232 193.902 363.315 195.288 365.485 194.901Z" fill="#D1D3D4"/>
<path d="M145.643 110.769H109.359C107.675 110.767 106.06 110.12 104.869 108.969C103.678 107.818 103.008 106.258 103.006 104.63V81.5237C103.008 79.8961 103.678 78.3358 104.869 77.1849C106.06 76.0341 107.675 75.3867 109.359 75.3848H145.643C147.328 75.3867 148.943 76.0341 150.134 77.1849C151.325 78.3358 151.995 79.8961 151.997 81.5237V104.63C151.995 106.258 151.325 107.818 150.134 108.969C148.943 110.12 147.328 110.767 145.643 110.769Z" fill="#E6E6E6"/>
<path d="M141.655 109.524H110.076C108.61 109.522 107.205 108.959 106.168 107.957C105.132 106.956 104.549 105.598 104.547 104.181V84.0713C104.549 82.6548 105.132 81.2968 106.168 80.2952C107.205 79.2936 108.61 78.7302 110.076 78.7285H141.655C143.121 78.7302 144.526 79.2936 145.563 80.2952C146.6 81.2968 147.183 82.6548 147.184 84.0713V104.181C147.183 105.598 146.6 106.956 145.563 107.957C144.526 108.959 143.121 109.522 141.655 109.524Z" fill="white"/>
<path d="M150.753 131.586H104.195C103.907 131.585 103.632 131.474 103.429 131.277C103.225 131.081 103.111 130.814 103.111 130.536C103.111 130.258 103.225 129.991 103.429 129.795C103.632 129.598 103.907 129.487 104.195 129.486H150.753C151.04 129.487 151.316 129.598 151.519 129.795C151.722 129.991 151.836 130.258 151.836 130.536C151.836 130.814 151.722 131.081 151.519 131.277C151.316 131.474 151.04 131.585 150.753 131.586Z" fill="#E6E6E6"/>
<path d="M150.753 125.588H104.195C103.907 125.587 103.632 125.476 103.429 125.279C103.225 125.083 103.111 124.816 103.111 124.538C103.111 124.26 103.225 123.993 103.429 123.797C103.632 123.6 103.907 123.489 104.195 123.488H150.753C151.04 123.489 151.316 123.6 151.519 123.797C151.722 123.993 151.836 124.26 151.836 124.538C151.836 124.816 151.722 125.083 151.519 125.279C151.316 125.476 151.04 125.587 150.753 125.588Z" fill="#E6E6E6"/>
<path d="M150.753 137.584H104.196C103.908 137.584 103.631 137.473 103.428 137.276C103.224 137.079 103.109 136.812 103.109 136.534C103.109 136.256 103.224 135.989 103.428 135.792C103.631 135.595 103.908 135.484 104.196 135.484H150.753C151.041 135.484 151.318 135.595 151.521 135.792C151.725 135.989 151.84 136.256 151.84 136.534C151.84 136.812 151.725 137.079 151.521 137.276C151.318 137.473 151.041 137.584 150.753 137.584Z" fill="#E6E6E6"/>
<path d="M150.753 143.584H104.196C103.908 143.584 103.631 143.473 103.428 143.276C103.224 143.079 103.109 142.812 103.109 142.534C103.109 142.256 103.224 141.989 103.428 141.792C103.631 141.595 103.908 141.484 104.196 141.484H150.753C151.041 141.484 151.318 141.595 151.521 141.792C151.725 141.989 151.84 142.256 151.84 142.534C151.84 142.812 151.725 143.079 151.521 143.276C151.318 143.473 151.041 143.584 150.753 143.584Z" fill="#E6E6E6"/>
<path d="M150.753 149.582H104.196C103.908 149.582 103.631 149.471 103.428 149.274C103.224 149.077 103.109 148.81 103.109 148.532C103.109 148.254 103.224 147.987 103.428 147.79C103.631 147.593 103.908 147.482 104.196 147.482H150.753C151.041 147.482 151.318 147.593 151.521 147.79C151.725 147.987 151.84 148.254 151.84 148.532C151.84 148.81 151.725 149.077 151.521 149.274C151.318 149.471 151.041 149.582 150.753 149.582Z" fill="#E6E6E6"/>
<path d="M150.753 155.58H104.195C103.907 155.579 103.632 155.468 103.429 155.272C103.225 155.075 103.111 154.808 103.111 154.53C103.111 154.252 103.225 153.986 103.429 153.789C103.632 153.592 103.907 153.481 104.195 153.48H150.753C151.04 153.481 151.316 153.592 151.519 153.789C151.722 153.986 151.836 154.252 151.836 154.53C151.836 154.808 151.722 155.075 151.519 155.272C151.316 155.468 151.04 155.579 150.753 155.58Z" fill="#E6E6E6"/>
<path d="M125.147 141.822H126.302V184.788H42.8105V183.673H125.147V141.822Z" fill="#3F3D56"/>
<path d="M7.50315 191.844H38.0929C40.0829 191.844 41.9914 191.08 43.3985 189.72C44.8056 188.361 45.5961 186.516 45.5961 184.594C45.5961 182.671 44.8056 180.827 43.3985 179.467C41.9914 178.108 40.0829 177.344 38.0929 177.344H7.50315C5.51319 177.344 3.60474 178.108 2.19763 179.467C0.790511 180.827 0 182.671 0 184.594C0 186.516 0.790511 188.361 2.19763 189.72C3.60474 191.08 5.51319 191.844 7.50315 191.844Z" fill="#F49F0A"/>
<path d="M126.528 145.06C130.335 145.06 133.422 142.078 133.422 138.398C133.422 134.719 130.335 131.736 126.528 131.736C122.72 131.736 119.633 134.719 119.633 138.398C119.633 142.078 122.72 145.06 126.528 145.06Z" fill="#F49F0A"/>
<path d="M162.165 140.249C172.287 142.328 169.712 142.734 179.835 144.813L188.552 146.603C189.642 146.827 189.941 145.178 188.85 144.954C178.727 142.876 181.302 142.47 171.179 140.391L162.463 138.601C161.372 138.377 161.074 140.025 162.165 140.249H162.165Z" fill="#F2F2F2"/>
<path d="M185.48 135.385L197.001 148.526C197.421 148.919 197.771 149.376 198.038 149.878C198.258 150.444 197.785 150.68 197.293 150.865C195.875 151.31 194.431 151.671 192.967 151.946L184.343 154.037C183.261 154.299 183.848 155.874 184.921 155.614L192.432 153.794L196.187 152.883C197.251 152.625 198.488 152.431 199.265 151.605C200.896 149.871 198.715 147.906 197.594 146.627L192.577 140.905L186.91 134.44C186.195 133.626 184.76 134.564 185.48 135.385V135.385Z" fill="#F2F2F2"/>
<path d="M222.008 192.667C230.863 192.667 238.042 185.73 238.042 177.174C238.042 168.618 230.863 161.682 222.008 161.682C213.153 161.682 205.975 168.618 205.975 177.174C205.975 185.73 213.153 192.667 222.008 192.667Z" fill="#E6E6E6"/>
<path d="M220.445 190.691C227.177 190.691 232.635 185.418 232.635 178.913C232.635 172.408 227.177 167.135 220.445 167.135C213.713 167.135 208.256 172.408 208.256 178.913C208.256 185.418 213.713 190.691 220.445 190.691Z" fill="white"/>
<path d="M218.258 186.976C217.981 186.976 217.708 186.914 217.46 186.794C217.212 186.674 216.997 186.501 216.831 186.287L212.457 180.651C212.316 180.47 212.214 180.264 212.156 180.045C212.097 179.826 212.084 179.598 212.117 179.374C212.15 179.149 212.229 178.934 212.348 178.739C212.467 178.544 212.625 178.374 212.812 178.238C213 178.102 213.213 178.004 213.44 177.947C213.666 177.891 213.903 177.878 214.134 177.91C214.366 177.942 214.589 178.018 214.791 178.133C214.993 178.248 215.169 178.401 215.309 178.582L215.31 178.583L218.172 182.27L225.522 171.617C225.652 171.428 225.819 171.266 226.014 171.14C226.208 171.014 226.427 170.926 226.657 170.881C226.887 170.837 227.123 170.836 227.353 170.88C227.583 170.924 227.802 171.011 227.997 171.137C228.192 171.263 228.36 171.424 228.49 171.613C228.62 171.801 228.711 172.012 228.757 172.234C228.803 172.456 228.803 172.685 228.757 172.907C228.711 173.129 228.621 173.341 228.49 173.529L219.742 186.209C219.584 186.438 219.371 186.627 219.121 186.761C218.872 186.894 218.593 186.968 218.307 186.976C218.291 186.976 218.274 186.976 218.258 186.976Z" fill="#E6E6E6"/>
<path d="M371.723 193.134C372.24 192.841 372.683 192.442 373.022 191.965C373.362 191.488 373.589 190.945 373.687 190.374C373.786 189.804 373.754 189.219 373.594 188.661C373.433 188.104 373.148 187.587 372.759 187.148L385.633 165.41L378.079 165.807L366.733 186.872C366.012 187.553 365.575 188.466 365.504 189.438C365.434 190.409 365.734 191.373 366.349 192.145C366.965 192.917 367.851 193.444 368.842 193.626C369.832 193.808 370.858 193.633 371.723 193.134H371.723Z" fill="#FFB8B8"/>
<path d="M357.223 116.94C357.223 116.94 370.858 112.704 374.365 122.869C377.871 133.034 389.66 160.565 389.66 160.565L376.995 185.554L371.296 179.625L377.386 162.259L359.853 136.846L357.223 116.94Z" fill="#3F3D56"/>
<path d="M377.429 183.002C377.019 182.331 376.498 181.729 375.888 181.22L371.537 177.174L371.295 177.695C370.849 178.374 370.557 179.136 370.437 179.931C370.317 180.727 370.372 181.538 370.599 182.311C370.826 183.085 371.22 183.803 371.755 184.419C372.289 185.035 372.952 185.535 373.701 185.886C374.34 186.21 375.06 186.354 375.78 186.301C376.138 186.271 376.484 186.159 376.789 185.975C377.094 185.791 377.349 185.539 377.535 185.242C377.704 184.887 377.783 184.499 377.765 184.11C377.746 183.72 377.631 183.34 377.429 183.002Z" fill="#E6E6E6"/>
<path d="M221.869 198.016H220.715V240.981H259.764V239.866H221.869V198.016Z" fill="#3F3D56"/>
<path d="M302.575 240.787C302.573 238.865 301.782 237.022 300.375 235.663C298.968 234.303 297.061 233.539 295.071 233.537H264.482C262.492 233.537 260.583 234.301 259.176 235.661C257.769 237.02 256.979 238.864 256.979 240.787C256.979 242.71 257.769 244.554 259.176 245.913C260.583 247.273 262.492 248.037 264.482 248.037H295.071C297.061 248.035 298.968 247.271 300.375 245.911C301.782 244.552 302.573 242.709 302.575 240.787Z" fill="#F49F0A"/>
<path d="M220.489 201.254C224.296 201.254 227.383 198.271 227.383 194.592C227.383 190.912 224.296 187.93 220.489 187.93C216.681 187.93 213.594 190.912 213.594 194.592C213.594 198.271 216.681 201.254 220.489 201.254Z" fill="#F49F0A"/>
</g>
<defs>
<clipPath id="clip0_91_5748">
<rect width="434" height="310" fill="white"/>
</clipPath>
</defs>
</svg>
