<?xml version="1.0" encoding="utf-8"?>
<!-- Generator: Adobe Illustrator 24.1.2, SVG Export Plug-In . SVG Version: 6.00 Build 0)  -->
<svg version="1.1" id="Layer_1" xmlns="http://www.w3.org/2000/svg" xmlns:xlink="http://www.w3.org/1999/xlink" x="0px" y="0px"
	 viewBox="0 0 700 500" style="enable-background:new 0 0 700 500;" xml:space="preserve">
<style type="text/css">
	.st0{fill:#FBB03B;stroke:#000000;stroke-miterlimit:10;}
	.st1{fill:#E6E6E6;stroke:#E6E6E6;stroke-miterlimit:10;}
	.st2{fill:#F2F2F2;stroke:#000000;stroke-miterlimit:10;}
	.st3{fill:none;stroke:#000000;stroke-miterlimit:10;}
	.st4{fill:#488F9A;stroke:#000000;stroke-miterlimit:10;}
	.st5{fill:#FFFFFF;}
	.st6{fill:#009BB4;stroke:#000000;stroke-miterlimit:10;}
	.st7{stroke:#000000;stroke-miterlimit:10;}
	.st8{fill:#FFFFFF;stroke:#000000;stroke-miterlimit:10;}
	.st9{font-family:'Astro01-Regular';}
	.st10{font-size:100px;}
	.st11{letter-spacing:3;}
	.st12{font-family:'ComicSansMS';}
</style>
<g>
	<rect x="83.5" y="165.5" class="st0" width="63" height="80"/>
	<ellipse class="st1" cx="113" cy="422" rx="68.5" ry="34.5"/>
	<path d="M109.5,411.5c0,9.4-4.3,23-9,23s-10-13.6-10-23s4.8-16,9.5-16S109.5,402.1,109.5,411.5z"/>
	<path d="M133.5,411.5c0,9.4-4.3,23-9,23s-10-13.6-10-23s4.8-16,9.5-16S133.5,402.1,133.5,411.5z"/>
	<path class="st2" d="M205.5,224.5c0,30.9-23.6,67-44,67s-30-36.1-30-67s16.6-56,37-56S205.5,193.6,205.5,224.5z"/>
	<path class="st2" d="M22.5,224.5c0,30.9,23.6,67,44,67s30-36.1,30-67s-16.6-56-37-56S22.5,193.6,22.5,224.5z"/>
	<path class="st3" d="M181.5,234.5l-0.1-0.3c-5.7,10.5-15,18.6-26.2,23l0,0"/>
	<path class="st3" d="M43.2,225.5l0.2-0.2c1.5,11.9,7.3,22.8,16.1,30.9l0,0"/>
	<path class="st2" d="M181.5,178.5l-0.3,2.8l-21.4,205.3c-1.3,12.5-11.8,22-24.4,22H93.5c-14.2,0-26.1-10.7-27.7-24.8l-21-193.5
		l-1.3-11.7h42.9l20.1,65.5l40.4-65.5H181.5L181.5,178.5z"/>
	<polygon class="st4" points="196,168.6 181.2,181.3 106.8,245 104.8,246.6 106.5,244 146.8,178.5 161.3,155.1 	"/>
	<g>
		<circle class="st5" cx="167.5" cy="124.5" r="22"/>
		<path d="M167.5,103c11.9,0,21.5,9.6,21.5,21.5s-9.6,21.5-21.5,21.5s-21.5-9.6-21.5-21.5S155.6,103,167.5,103 M167.5,102
			c-12.4,0-22.5,10.1-22.5,22.5s10.1,22.5,22.5,22.5s22.5-10.1,22.5-22.5S179.9,102,167.5,102L167.5,102z"/>
	</g>
	<polygon class="st6" points="112.2,262.7 44.8,190.2 30.6,175 77.1,148.1 86.4,178.5 106.5,244 106.8,245 	"/>
	<g>
		<circle class="st5" cx="60.5" cy="124.5" r="22"/>
		<path d="M60.5,103c11.9,0,21.5,9.6,21.5,21.5S72.4,146,60.5,146S39,136.4,39,124.5S48.6,103,60.5,103 M60.5,102
			C48.1,102,38,112.1,38,124.5S48.1,147,60.5,147S83,136.9,83,124.5S72.9,102,60.5,102L60.5,102z"/>
	</g>
	<g>
		<path class="st5" d="M115,186.5c-21.5,0-42.5-9.4-54.8-24.6c-9.4-11.6-12.8-25.4-9.7-39.8c2.1-9.9,5.2-19,9.3-27.2
			C71.8,71.1,91,57.9,114,57.5c0.3,0,0.7,0,1,0h0.1c0.2,0,0.3,0,0.4,0c0.5,0,1,0,1.4,0c32.3,1,57.5,26.9,62.6,64.5
			c2.3,17.2-1.6,32.2-11.4,43.4C156.4,178.8,137.1,186.5,115,186.5L115,186.5z"/>
		<path d="M115.1,58c0.1,0,0.3,0,0.4,0h0h0c0.5,0,1,0,1.5,0c16.3,0.5,30.8,7.2,42.1,19.5c10.5,11.4,17.6,27.3,20,44.6
			c2.3,17-1.6,31.9-11.3,43C156.1,178.4,136.9,186,115,186s-42.2-9.4-54.4-24.4c-9.3-11.5-12.6-25.1-9.6-39.4
			c2.1-9.8,5.2-19,9.3-27.1C65.9,83.9,73.2,75,81.8,68.6c9.4-6.9,20.3-10.5,32.2-10.7C114.3,58,114.6,58,115.1,58L115.1,58
			C115,58,115,58,115.1,58 M115,57c-0.3,0-0.7,0-1,0c-25.5,0.4-43.7,16-54.6,37.7C55.2,103,52,112.3,50,122c-8,38,29.1,65,65,65
			s71-21,65-65c-4.8-34.9-28.2-63.9-63-65c-0.5,0-1,0-1.5,0C115.3,57,115.2,57,115,57C115,57,115,57,115,57z"/>
	</g>
	<path class="st7" d="M54.5,103.5c-2-43,34-52,34-52l0,0c2.6-5.3,6.4-9.8,11.2-13.4l0.8-0.6l0.2,0.4c1.8,4.3,4.9,8,8.8,10.6l0,0
		l6.3-3.5c1.8-1,3.7-1.9,5.6-2.8l6.2-2.7l0,0c0,4,0.6,7.9,1.9,11.7l0.1,0.3l1.7-0.6c4.2-1.6,8.6-2.6,13-3.1l2.3-0.3l-2.1,1.2
		c-2,1.2-3.9,2.5-5.7,3.8l-1.3,0.9c0,0,22,11,26,16c10.6,13.3,13,33,13,33l-12-6c0,0-12-5-14-6c-20.7-10.3-13-5-12,0l-17-9l0,0
		c0.7,3.3,2.1,6.3,4.3,8.9l1.7,2.1l-7.4-2.7c-4.3-1.6-8.5-3.6-12.4-6.1l-5.1-3.3l0,0c1.3,3.3,3.3,6.3,5.8,8.8l3.2,3.2l-9.1-3
		c-6.6-2.2-12.5-6-17.2-11.1c-0.8-0.9-1.8-1.9-2.7-2.9l0,0L72.2,86.8c-0.4,0.5-0.9,0.9-1.3,1.4L54.5,103.5L54.5,103.5z"/>
	<g>
		<path d="M170.4,114.7c-0.4,0-0.8-0.3-0.9-0.8l-1.4-9.8c0-0.3,0-0.5,0.2-0.7c0.2-0.2,0.4-0.3,0.6-0.3l9.9-0.7
			c0.4,0,0.7,0.2,0.9,0.5c0.2,0.3,0.1,0.7-0.1,1l-8.5,10.5C170.9,114.6,170.6,114.7,170.4,114.7L170.4,114.7z"/>
		<path d="M178.9,102.9c0.2,0,0.3,0.2,0.4,0.2c0,0.1,0.1,0.3-0.1,0.4l-8.5,10.5c-0.1,0.1-0.2,0.2-0.3,0.2c-0.1,0-0.4-0.1-0.4-0.4
			l-1.4-9.8c0-0.2,0.1-0.3,0.1-0.3s0.1-0.1,0.3-0.2L178.9,102.9L178.9,102.9 M178.8,101.9c0,0-0.1,0-0.1,0l-9.9,0.7
			c-0.8,0.1-1.4,0.8-1.3,1.6l1.4,9.8c0.1,0.8,0.8,1.2,1.4,1.2c0.4,0,0.8-0.2,1.1-0.5l8.5-10.5C180.7,103.3,180,101.9,178.8,101.9
			L178.8,101.9L178.8,101.9z"/>
	</g>
	<g>
		<path d="M116.9,107.9c-0.7-0.6-1.5-1-2.4-1s-1.8,0.3-2.4,1l-4.4,4.2c-1.4-0.1-2.5-1.3-2.5-2.7v-5.2c0-1.5,1.2-2.7,2.7-2.7h13.3
			c1.5,0,2.7,1.2,2.7,2.7v5.2c0,1.4-1.1,2.6-2.5,2.7L116.9,107.9L116.9,107.9z"/>
		<path d="M121.1,101.9c1.2,0,2.2,1,2.2,2.2v5.2c0,1.1-0.8,2-1.8,2.2l-4.3-4c-0.8-0.7-1.7-1.1-2.8-1.1s-2,0.4-2.8,1.1l-4.3,4
			c-1.1-0.2-1.8-1.1-1.8-2.2v-5.2c0-1.2,1-2.2,2.2-2.2H121.1 M121.1,100.9h-13.3c-1.8,0-3.2,1.4-3.2,3.2v5.2c0,1.8,1.4,3.2,3.2,3.2
			l4.6-4.3c0.6-0.6,1.3-0.8,2.1-0.8s1.5,0.3,2.1,0.8l4.6,4.3c1.8,0,3.2-1.4,3.2-3.2v-5.2C124.3,102.3,122.9,100.9,121.1,100.9
			L121.1,100.9L121.1,100.9z"/>
	</g>
	<g>
		<path class="st5" d="M138.6,134c-6.7,0-11.6-2.4-15.3-7.7c-1.2-1.7-2.5-6.9-2.5-8.4v-0.1L120,110c-0.1-1-0.2-3-0.1-3.6
			c0.8-4.9,6-5.4,8.2-5.4h33.7c4.6,0,8.2,3.8,8.2,8.6v2.4c0,4.6-1.9,11.5-4.2,15.2c-2.7,4.3-5.2,5.7-11.9,6.5
			c-1.7,0.2-3.5,0.3-5.4,0.3L138.6,134L138.6,134z"/>
		<path d="M161.8,102c4,0,7.2,3.3,7.2,7.6v2.4c0,4.4-1.9,11.1-4.1,14.6c-2.5,4-4.8,5.3-11.2,6.1c-1.7,0.2-3.4,0.3-5.3,0.3h-9.8
			c-6.4,0-11-2.3-14.5-7.2c-1.1-1.5-2.3-6.5-2.3-7.8v-0.2l-0.8-7.8c-0.1-1.1-0.2-2.9-0.1-3.3c0.7-4.2,5.3-4.6,7.2-4.6L161.8,102
			 M161.8,100h-33.7c-4.6,0-8.5,1.9-9.2,6.3c-0.1,0.8,0,3.1,0.1,3.9l0.8,7.8c0,1.7,1.3,7.1,2.7,9c4,5.6,9.2,8.1,16.1,8.1h9.8
			c1.9,0,3.7-0.1,5.5-0.3c6.8-0.9,9.8-2.3,12.7-7c2.5-3.9,4.4-11,4.4-15.7v-2.4C171,104.1,166.9,100,161.8,100L161.8,100L161.8,100z
			"/>
	</g>
	<path class="st8" d="M90.5,156.5l50-1c0,0-4.6,4.9-17,10C96.5,176.5,90.5,156.5,90.5,156.5z"/>
	<circle cx="145.5" cy="122.5" r="4.5"/>
	<path d="M126.2,96.4c7.5-3.8,26.2-2.4,33.1-1.7c0.3,0,0.3,0.5,0,0.5l-32.7,2.6C125.8,97.9,125.5,96.7,126.2,96.4L126.2,96.4z"/>
	<path d="M102.1,96.4C94.7,92.6,76,94,69,94.7c-0.3,0-0.3,0.5,0,0.5l32.7,2.6C102.6,97.9,102.9,96.7,102.1,96.4L102.1,96.4z"/>
	<line class="st3" x1="113" y1="262.5" x2="112" y2="408"/>
	<circle class="st6" cx="112" cy="295" r="4.5"/>
	<circle class="st6" cx="112.9" cy="324.9" r="4"/>
	<g>
		<path d="M58.3,114.7c-0.3,0-0.5-0.1-0.7-0.3L49,103.9c-0.2-0.3-0.3-0.7-0.1-1c0.2-0.3,0.5-0.5,0.8-0.5l10,0.7
			c0.3,0,0.5,0.1,0.7,0.3s0.2,0.4,0.2,0.7l-1.4,9.8C59.1,114.4,58.7,114.7,58.3,114.7z"/>
		<path d="M49.8,101.9l0,1l9.9,0.7c0.2,0,0.3,0.1,0.3,0.2c0,0.1,0.1,0.2,0.1,0.3l-1.4,9.8c0,0.3-0.3,0.4-0.4,0.4
			c-0.1,0-0.2-0.1-0.3-0.2l-8.5-10.5c-0.1-0.2-0.1-0.3,0-0.4c0-0.1,0.1-0.2,0.4-0.2V101.9 M49.8,101.9c-1.2,0-1.8,1.4-1.1,2.3
			l8.5,10.5c0.3,0.4,0.7,0.5,1.1,0.5c0.7,0,1.3-0.5,1.4-1.2l1.4-9.8c0.1-0.8-0.5-1.6-1.3-1.6L49.8,101.9
			C49.8,101.9,49.8,101.9,49.8,101.9L49.8,101.9L49.8,101.9z"/>
	</g>
	<g>
		<path class="st5" d="M80.4,134c-1.9,0-3.7-0.1-5.4-0.3c-6.7-0.9-9.3-2.3-12-6.5c-2.3-3.7-4.2-10.6-4.2-15.2v-2.4
			c0-4.8,3.6-8.6,8.2-8.6h33.7c2.2,0,7.4,0.5,8.2,5.4c0.1,0.6,0,2.6-0.1,3.6l-0.8,7.9v0.1c0,1.5-1.3,6.7-2.5,8.4
			c-3.7,5.2-8.6,7.7-15.3,7.7L80.4,134L80.4,134z"/>
		<path d="M100.8,102c1.9,0,6.5,0.4,7.2,4.6c0.1,0.4,0,2.3-0.1,3.3l-0.8,7.8v0.1l0,0.1c0,1.3-1.2,6.3-2.3,7.8
			c-3.5,4.9-8.1,7.2-14.5,7.2h-9.8c-1.8,0-3.6-0.1-5.3-0.3c-6.4-0.8-8.7-2.1-11.2-6.1c-2.2-3.5-4-10.2-4-14.6v-2.4
			c0-4.2,3.2-7.6,7.2-7.6L100.8,102 M100.7,100H67.1c-5.1,0-9.2,4.1-9.2,9.6v2.4c0,4.6,1.9,11.7,4.3,15.7c2.9,4.7,5.9,6.1,12.7,7
			c1.8,0.2,3.7,0.3,5.5,0.3h9.8c6.9,0,12.2-2.5,16.1-8.1c1.4-1.9,2.7-7.3,2.7-9l0.8-7.8c0.1-0.8,0.2-3.1,0.1-3.9
			C109.2,101.9,105.3,100,100.7,100L100.7,100L100.7,100z"/>
	</g>
	<circle cx="86.5" cy="122.5" r="4.5"/>
</g>
<text transform="matrix(1 0 0 1 262.23 284.26)" class="st5 st9 st10 st11">udiag¾</text>
<text transform="matrix(1 0 0 1 545.78 284.26)" class="st5 st12 st10 st11">.lk</text>
</svg>
