<?xml version="1.0" encoding="utf-8"?>
<!-- Generator: Adobe Illustrator 24.1.2, SVG Export Plug-In . SVG Version: 6.00 Build 0)  -->
<svg version="1.1" id="Layer_1" xmlns="http://www.w3.org/2000/svg" xmlns:xlink="http://www.w3.org/1999/xlink" x="0px" y="0px"
	 viewBox="0 0 500 170" style="enable-background:new 0 0 500 170;" xml:space="preserve">
<style type="text/css">
	.st0{enable-background:new    ;}
	.st1{fill:#4D4D4D;}
</style>
<g class="st0">
	<path class="st1" d="M46.3,41h6.4c13.9,0,27,4.8,39.3,14.3c5.7,5.9,9,10.3,9.8,13.1c2.6,6.4,3.9,11.5,3.9,15v4.3
		c0,7.9-2.2,16-6.6,24c-6.9,11.2-15.7,16.8-26.6,16.8c-9.2,0-15.8-5-19.7-15c-0.7-2.8-1-5.4-1-7.8c0-8.4,3.1-15.6,9.2-21.7
		c4.2-3.8,8.9-5.7,14.1-5.7h1c6,0,10.2,3.5,12.5,10.4l0.4,3.9c0,8-3.7,14.5-11.1,19.3c-2.8,1.3-5.8,2-9.2,2h-0.2
		c-3.1,0-4.7-0.9-4.7-2.7c0.5-2.6,1.4-3.9,2.7-3.9c8.6-2.8,12.9-7.5,12.9-13.9c0-4.3-1.4-6.4-4.3-6.4c-3,0-6.3,2.3-10,7
		c-3.1,5-4.7,9.3-4.7,12.9c0,3.6,1.5,7.3,4.5,11.1c2.3,1.4,4.6,2.1,6.8,2.1h0.4c8.1,0,15.2-6.3,21.3-18.9c2.2-5.7,3.3-10.7,3.3-15
		v-2.7c0-13.6-8.9-23.7-26.6-30.5c-6.6-2.2-14.2-3.3-22.7-3.3c-2.1-1.4-3.1-2.9-3.1-4.5C44.4,43.8,45,42.5,46.3,41z"/>
	<path class="st1" d="M113.4,71.2h3.7c5.9,0,11.5,3.6,16.6,10.7c2.9,5,4.3,9.8,4.3,14.3v4.7c0,7.9-3.6,16.3-10.9,25.2
		c-1.4,1.4-2.4,2.1-3.1,2.1c-3-1-4.5-2.6-4.5-4.9v-0.8c0-1.1,1.6-3.7,4.9-7.8c3.6-5.9,5.5-11.2,5.5-15.8c0-6.1-2.3-11.6-7-16.6
		c-2.7-1.8-5.2-2.7-7.4-2.7h-1.2l-4.9,0.6c-2.9-0.6-4.3-2.1-4.3-4.3c0-2,1.4-3.3,4.3-4.1C110.7,71.4,112,71.2,113.4,71.2z"/>
	<path class="st1" d="M163.8,54.2h2.5c5.9,0,10.1,2.5,12.7,7.4c0.8,1.7,1.2,3.6,1.2,5.7v2c0,5.4-2.9,14.9-8.8,28.3
		c-2.1,6.3-3.1,11.2-3.1,14.8c0.4,4.3,1.5,6.4,3.3,6.4c0.5,0.4,1.6,0.6,3.3,0.6c3.2,0,5.2-2.4,6.3-7.2c0.8-7.3,1.5-10.9,2-10.9
		c0.9-0.7,2-1,3.3-1h0.8c2.6,0,3.9,1.2,3.9,3.7c0,3.2,1.2,6.9,3.5,11.3c1.1,2.1,3,3.1,5.7,3.1h0.6c4.8-0.5,7.2-2.8,7.2-7v-1.8
		c0-6.7-5.3-12-16-16c-7.8-4-11.7-9.3-11.7-16c0-7.1,5.9-12.6,17.8-16.6l3.5-0.4c3.2,0,5.8,1.2,7.6,3.5l0.6,2.7
		c0,2.2-1.6,3.6-4.7,4.1c-1.9-0.7-3.3-1-4.3-1h-1.2c-2.8,0-6,2-9.4,6.1c-0.5,0.9-0.8,1.7-0.8,2.3v0.8c0,2.9,3.2,5.5,9.6,7.8
		c5,2.5,9.7,5.8,13.9,10c4,5.1,6.1,9.5,6.1,13.1v3.1c0,4.5-2.9,8.5-8.8,12.1c-3.5,1.3-6.4,2-8.8,2c-4.8,0-9.3-1.8-13.7-5.3
		c-5,4.2-9.8,6.3-14.5,6.3c-6.4,0-10.9-3.7-13.5-11.1l-1-6.4c-5.8,5.3-9.5,8-11.1,8h-1c-2,0-3.1-1.2-3.5-3.7v-0.4
		c0-2.9,1.5-4.9,4.5-6.3c6.1-5.1,10.5-9.6,13.1-13.5c7.3-10.3,10.9-18.7,10.9-25.2c0-3.1-1.8-5.3-5.3-6.6c-0.6-0.3-1.4-0.4-2.5-0.4
		c-3.3,0-6.8,2.8-10.5,8.4c-1.6,2.7-2.3,5.4-2.3,8c0,2.1,0.6,3.5,1.8,4.3h1c2.8,0,5.6-3.4,8.4-10.2c1.4-0.9,2.6-1.4,3.7-1.4
		c2,0,3.2,1.4,3.7,4.3v1.2c0,1.9-0.9,3.9-2.7,5.9c-4.2,6.3-8.4,9.4-12.5,9.4h-0.6c-4.6,0-8.1-2.6-10.5-7.8c-0.7-1.6-1-3.4-1-5.3
		c0-7.2,3.8-14.2,11.3-20.9C157.5,55.7,160.9,54.2,163.8,54.2z"/>
	<path class="st1" d="M211,29.9h1.6c1.9,0,3.4,1.4,4.5,4.1v1c-2.8,20.7-4.5,31.1-5.1,31.1c-0.9,0.9-2,1.4-3.1,1.4
		c-2.1,0-3.6-1.2-4.5-3.5c2-19.8,3.1-30.3,3.5-31.6C208.9,30.7,210,29.9,211,29.9z"/>
	<path class="st1" d="M220.1,40.8h6.8c12.5,0,24.8,4.2,36.7,12.5c10.5,9.1,15.8,19.1,15.8,30.1V88c0,8.9-2.9,17.7-8.6,26.6
		c-6.6,9.1-14.8,13.7-24.6,13.7c-9.1,0-15.7-4.9-19.5-14.6c-0.8-2.8-1.2-5.5-1.2-8v-0.4c0-9.3,3.7-17,11.1-23
		c3.8-2.7,7.8-4.1,12.1-4.1h1c2.6,0,3.9,0.6,3.9,1.8v1.8c-0.4,3.5-1.6,5.3-3.5,5.3l-1.6-0.2c-2.6,0-5.8,2.1-9.4,6.4
		c-3.3,5.1-4.9,9.3-4.9,12.5v2c0,3.1,1.4,6.4,4.3,10.2c2.4,1.4,4.7,2.1,6.8,2.1h0.4c8.4,0,15.7-6.7,21.9-20.1c2-5.8,2.9-11,2.9-15.4
		c0-14.8-9.3-25.5-27.9-32c-6.4-2-13.5-2.9-21.5-2.9c-2.1-1.4-3.1-2.9-3.1-4.5C218.2,43.6,218.8,42.2,220.1,40.8z"/>
	<path class="st1" d="M283.8,23.8h1.6c2.3,0,3.9,1.6,4.7,4.9v0.2c-3,20.7-4.7,31.1-5.1,31.1c-0.9,0.9-1.9,1.4-2.7,1.4h-1
		c-2,0-3.4-1.2-4.1-3.5c2-19.3,3.1-29.8,3.5-31.6C281.8,24.6,282.8,23.8,283.8,23.8z M314.3,24h1c3.2,0,5.7,1.8,7.4,5.5v0.8
		c0,1.6-1.9,3.1-5.7,4.7c-6.5,4.5-11.6,10.1-15,16.6c-6.5,11-9.8,22-9.8,33c0,11.9,4.4,22.4,13.1,31.3c4,3.3,7.9,4.9,11.7,4.9h0.4
		c2.4,0,4.7-0.8,7-2.3c2.2-3.1,3.3-6.4,3.3-10v-0.6c0-6.6-3.3-13.6-9.8-20.9c-3.6-3.3-8.4-4.9-14.3-4.9c-1.7,0-4,0.3-7,0.8
		c-2.2-0.9-3.3-2.6-3.3-4.9v-0.6c0-3.1,0.6-4.7,1.8-4.7c1.9-0.7,3.9-1,6.1-1h0.8l0.8-0.2c10.3,0,19.3,5.5,27.1,16.6
		c4,6.9,6.1,12.9,6.1,18v4.1c0,6.9-3.5,12.5-10.4,16.8c-2.6,1.4-5.6,2.1-9,2.1c-14.4,0-25-9.4-31.6-28.3c-1.2-5.7-1.8-10.7-1.8-15
		c0-16,4.7-31.5,14.1-46.5C303.3,31.1,308.9,26,314.3,24z"/>
</g>
<g class="st0">
	<path class="st1" d="M349.8,132.8c-1.7,0-3.1-0.6-4.3-1.8s-1.8-2.6-1.8-4.3c0-1.7,0.6-3.1,1.8-4.3c1.2-1.2,2.6-1.8,4.3-1.8
		c1.7,0,3.1,0.6,4.3,1.8c1.2,1.2,1.8,2.6,1.8,4.3c0,1.7-0.6,3.1-1.8,4.3C352.9,132.2,351.5,132.8,349.8,132.8z"/>
	<path class="st1" d="M383.9,89.9l-0.7,24.3c0,2.6-0.1,6.3-0.4,11.3c-0.3,3.3-1.9,4.9-4.8,4.9c-3.2,0-4.8-1.7-4.8-5
		c0-3.9,0.2-9.9,0.5-17.7c0.4-7.9,0.5-13.8,0.5-17.7c0-5.1,0.1-11,0.2-17.7c0.2-6.6,0.2-12.5,0.2-17.7c0-3.3,1.6-4.9,4.8-4.9
		c3.2,0,4.8,1.6,4.8,4.9c0,5.1-0.1,11-0.2,17.7C384,78.9,383.9,84.7,383.9,89.9z"/>
	<path class="st1" d="M442.5,130.3c-1.8,0-3.2-0.9-4.2-2.8c-1.7-3.3-4.2-7.2-7.7-11.7l-8.6-11.8c-1.9,1.5-4.8,3.6-8.8,6.3
		c-0.4,5-0.5,10-0.5,14.7c0,1.5-0.4,2.7-1.3,3.6c-0.9,0.9-2,1.4-3.4,1.4c-3.3,0-4.9-2.2-4.9-6.6c0-2.7,0.2-6.7,0.6-12.1
		c0.4-5.4,0.6-9.4,0.6-12.1c0-4.9,0.1-10.6,0.2-17c0.1-6.4,0.2-12,0.2-16.9c0-1.5-0.1-3.2-0.2-5.2c-0.1-2-0.2-3.7-0.2-5.2
		s0.4-2.7,1.3-3.6c0.9-0.9,2-1.4,3.4-1.4c1.4,0,2.5,0.5,3.4,1.4c0.9,0.9,1.3,2.1,1.3,3.6c0,1.5,0.1,3.3,0.2,5.3
		c0.2,2,0.2,3.8,0.2,5.3l-0.3,15.7c-0.2,5.7-0.2,11.3-0.1,17c4.4-3.4,8.7-7.1,12.8-11.1L437.3,76c1.1-1.1,2.2-1.7,3.5-1.7
		c1.3,0,2.4,0.5,3.4,1.5c1,1,1.5,2.2,1.5,3.5c0,1.1-0.5,2.2-1.4,3.3c-4,4.7-8.9,9.7-14.8,15.1l10.6,14.5c5,6.8,7.5,11.2,7.5,13.3
		c0,1.3-0.5,2.4-1.5,3.4S443.9,130.3,442.5,130.3z"/>
</g>
</svg>
